<?xml version="1.0" encoding="UTF-8"?>
<svg id="Capa_4" data-name="Capa 4" xmlns="http://www.w3.org/2000/svg" viewBox="0 0 1246.93 467.84">
  <defs>
    <style>
      .cls-1 {
        fill: #f7d665;
        stroke-width: 0px;
      }
    </style>
  </defs>
  <path class="cls-1" d="m635.76,69.69c2.26-6.78,2.3-12.65.13-17.6-2.18-4.95-5.48-9.25-9.91-12.91-4.43-3.65-9.74-6.43-15.9-8.34-6.17-1.91-12.22-3.04-18.12-3.39-5.91-.35-11.35.26-16.3,1.83-4.96,1.56-8.47,3.91-10.56,7.04-6.26,9.39,2.35,18.87,25.82,28.42,5.56,2.26,12.69,4.79,21.38,7.56,8.69,2.79,16.52,5.31,23.47,7.56,6.95,2.26,14.17,4.96,21.64,8.08,7.47,3.13,14.35,6.78,20.6,10.95,6.26,4.17,11.47,8.87,15.65,14.08,6.61,8.17,10.21,17.21,10.82,27.12.61,9.91-1.26,19.17-5.61,27.77-4.35,8.61-10.87,16.52-19.56,23.73-8.7,7.22-18.51,12.39-29.47,15.52-9.22,2.79-19.04,4.61-29.47,5.48-10.43.87-20.69.83-30.77-.13-10.08-.95-19.86-2.91-29.34-5.87-9.48-2.96-17.91-6.69-25.3-11.21-7.39-4.52-13.52-10.13-18.38-16.82-4.87-6.69-7.74-14.12-8.61-22.29-1.56-13.91,2.74-25.47,12.91-34.69,10.17-9.21,24.03-13.47,41.6-12.78-3.65,6.61-5.52,13.61-5.61,21-.09,7.39,1.35,14.43,4.3,21.12,2.96,6.7,7.21,13.04,12.78,19.04,5.56,6,11.82,11.08,18.78,15.26,6.95,4.17,14.73,7.26,23.34,9.26,8.61,2,17.25,2.39,25.95,1.17,11.12-1.91,19.3-5.95,24.51-12.13,5.22-6.17,6.73-13.08,4.56-20.73-2.18-7.65-7.78-14.6-16.82-20.86-6.43-4.34-14.91-8.69-25.43-13.04-10.52-4.34-20.3-8.25-29.34-11.73-9.04-3.48-17.99-7.39-26.86-11.74-8.87-4.34-16.17-9.78-21.91-16.3-5.74-6.52-9.22-14.04-10.43-22.56-.87-6.26,0-12.65,2.61-19.17,2.61-6.52,6.47-12.34,11.6-17.47,5.13-5.13,11.17-9.91,18.13-14.34,6.95-4.43,14.34-7.73,22.17-9.91,7.82-2.17,15.73-3.48,23.73-3.91,7.99-.43,15.56.65,22.69,3.26,8,2.96,14.21,7.48,18.65,13.56,4.43,6.09,6.61,12.39,6.52,18.91-.09,6.52-2.78,12.87-8.08,19.04-5.31,6.17-12.82,10.56-22.56,13.17Z"/>
  <path class="cls-1" d="m838.38,80.12c-3.82,9.74-5.96,30.16-6.39,61.28-.44,31.12,1.69,53.46,6.39,67.02h-56.85c4.87-11.3,7.39-29.21,7.56-53.72l-.26.78c-3.3,13.22-7.04,24.12-11.21,32.73-4.17,8.61-9.56,14.82-16.17,18.64-4,2.44-8.61,3.87-13.82,4.3-5.22.44-10.48-.69-15.78-3.39-5.3-2.69-9.26-7-11.87-12.91-2.96-6.43-4.69-15.73-5.21-27.9-.52-12.17-1.14-25.12-1.83-38.86-.7-13.73-2.7-25.12-6-34.16,19.99-2.43,37.12-7.04,51.37-13.82v56.85c0,29.73,3.04,44.51,9.13,44.33,4-.35,7.43-3.69,10.3-10.04,2.87-6.34,5.61-15.08,8.21-26.21.87-3.48,1.65-7.04,2.35-10.69-1.22-20.51-3.48-33.99-6.78-40.42,9.04-.87,19.21-2.69,30.51-5.48,11.3-2.78,20.08-5.56,26.34-8.34Z"/>
  <path class="cls-1" d="m896.54,148.45c0,29.04,2.26,49.03,6.78,59.98h-59.2c2.96-6.61,5.08-15.91,6.39-27.9,1.3-12,1.78-23.86,1.43-35.6-.35-11.73-1.22-22.64-2.61-32.73-1.4-10.08-3.13-16.95-5.22-20.6,18.08-1.74,35.55-5.56,52.42-11.47v46.68c6.43-23.64,14.86-38.6,25.3-44.85,3.3-1.91,6.95-3.17,10.95-3.78,4-.61,8.13-.35,12.39.78,4.26,1.13,8.13,3.13,11.61,6,3.48,2.87,6.34,7.22,8.61,13.04,2.26,5.83,3.39,12.74,3.39,20.73,0,.52-.05,3.57-.13,9.13-.09,5.57-.09,10.04,0,13.43.08,3.39.17,8.26.26,14.6.08,6.35.26,11.78.52,16.3s.65,9.3,1.17,14.34c.52,5.04,1.17,9.43,1.96,13.17.78,3.74,1.78,6.65,3,8.74h-57.11c1.74-2.26,3.22-8.74,4.43-19.43,1.22-10.69,2-21.99,2.35-33.9.35-11.91-.22-22.69-1.69-32.34-1.48-9.65-3.96-14.64-7.43-15-3.83-.17-7.22,3.05-10.17,9.65-2.96,6.61-5.83,15.56-8.61,26.86-.35,1.4-.61,2.79-.78,4.17Z"/>
  <path class="cls-1" d="m1032.4,148.45c0,29.04,2.26,49.03,6.78,59.98h-59.2c2.96-6.61,5.08-15.91,6.39-27.9,1.3-12,1.78-23.86,1.43-35.6-.35-11.73-1.22-22.64-2.61-32.73-1.4-10.08-3.13-16.95-5.22-20.6,18.08-1.74,35.55-5.56,52.42-11.47v46.68c6.43-23.64,14.86-38.6,25.3-44.85,3.3-1.91,6.95-3.17,10.95-3.78,4-.61,8.13-.35,12.39.78,4.26,1.13,8.13,3.13,11.61,6,3.48,2.87,6.34,7.22,8.61,13.04,2.26,5.83,3.39,12.74,3.39,20.73,0,.52-.05,3.57-.13,9.13-.09,5.57-.09,10.04,0,13.43.08,3.39.17,8.26.26,14.6.08,6.35.26,11.78.52,16.3.26,4.52.65,9.3,1.17,14.34.52,5.04,1.17,9.43,1.96,13.17.78,3.74,1.78,6.65,3,8.74h-57.11c1.74-2.26,3.22-8.74,4.43-19.43,1.22-10.69,2-21.99,2.35-33.9.35-11.91-.22-22.69-1.69-32.34-1.48-9.65-3.96-14.64-7.43-15-3.83-.17-7.22,3.05-10.17,9.65-2.96,6.61-5.83,15.56-8.61,26.86-.35,1.4-.61,2.79-.78,4.17Z"/>
  <path class="cls-1" d="m1175.57,214.17l-44.34-96.49c-3.65-7.99-6.65-14.21-8.99-18.65-2.35-4.43-4.7-8.21-7.04-11.34-2.35-3.13-4.91-5.65-7.69-7.56h64.67c-1.22,3.83-1.3,7.74-.26,11.73,1.05,4,3.39,10.43,7.04,19.3l23.21,55.81c.35-.69.87-1.65,1.57-2.87,2.61-4.52,4.6-8.08,6-10.69,1.39-2.61,3.34-6.56,5.87-11.87,2.52-5.3,4.39-9.78,5.6-13.43,1.22-3.65,2.35-8.04,3.39-13.17,1.05-5.13,1.39-9.56,1.05-13.3-.35-3.74-1.43-7.56-3.26-11.47-1.83-3.91-4.48-7.26-7.95-10.04,7.13-2.78,13.3-2.69,18.51.26,3.3,1.92,5.61,4.7,6.91,8.34,1.31,3.65,1.48,8,.52,13.04-.96,5.05-2.22,10.04-3.78,15-1.57,4.96-3.91,10.56-7.04,16.82-3.13,6.26-5.78,11.44-7.95,15.52-2.18,4.08-4.79,8.73-7.82,13.95-3.05,5.22-4.91,8.52-5.61,9.91-14.43,26.6-27.3,48.76-38.6,66.5-4.52,7.48-9.87,12.52-16.04,15.12-6.17,2.61-11.73,3.09-16.69,1.43-4.96-1.65-9.04-4.69-12.26-9.13-3.22-4.43-4.48-9.52-3.78-15.26.87-6.61,4.34-11.35,10.43-14.21,6.08-2.87,12.78-2.22,20.08,1.96-4.7,7.3-4.87,12.69-.52,16.17,3.47,2.78,7.21,2.69,11.21-.26.52-.34,1.04-.87,1.56-1.56,1.39-1.39,5.39-7.91,12-19.56Z"/>
  <path class="cls-1" d="m782.58,321.98c-6.96-.17-14.04-1.74-21.25-4.7-7.22-2.96-13.47-6.34-18.78-10.17-5.31-3.82-11.73-8.08-19.3-12.78-7.56-4.7-14.56-8.17-20.99-10.43-19.3-6.78-35.64-7.26-49.03-1.43-13.39,5.83-23.39,15.95-29.99,30.38-6.61,14.43-9.22,30.86-7.82,49.29.52,7.82,1.96,15.13,4.3,21.91,2.34,6.78,5.65,12.91,9.91,18.38,4.26,5.48,9.26,9.87,15,13.17-16.86,5.56-31.29,6.56-43.29,3-11.99-3.56-21.34-10.17-28.03-19.82-6.7-9.65-10.22-21.08-10.56-34.29-.35-12.86,1.48-24.73,5.48-35.6,4-10.87,9.56-20.17,16.69-27.9,7.13-7.74,15.52-14.35,25.17-19.82,9.65-5.48,19.99-9.52,31.03-12.13,11.04-2.61,22.39-3.91,34.03-3.91,12.34,0,24.73,1,37.16,3,12.43,2,22.56,4.13,30.38,6.39,7.82,2.26,15.9,4.04,24.25,5.35,8.34,1.3,15.55,1.43,21.64.39,6.78-1.21,12.61-3.6,17.47-7.17,4.87-3.56,6.87-7.78,6-12.65-.87-4.34-3.43-7.82-7.69-10.43-4.26-2.6-9.09-4-14.47-4.17-5.39-.17-10.69.44-15.91,1.83-5.22,1.39-9.39,4.22-12.52,8.47-3.13,4.26-4.26,9.44-3.39,15.52-8.7-.52-14.78-4.69-18.25-12.52-3.65-8.17-2.61-15.91,3.13-23.21,6.26-8.34,16.86-12.69,31.81-13.04,12-.17,22.91,3.56,32.73,11.21,9.82,7.65,16.56,16.6,20.21,26.86,1.39,5.22,2.17,10.61,2.34,16.17.17,5.57-.91,11.04-3.26,16.43-2.35,5.39-5.35,10.22-9,14.47-3.65,4.26-8.56,7.65-14.73,10.17-6.17,2.52-13,3.78-20.47,3.78Zm-88.14,26.6v.26c-1.04,65.89.95,105.62,6,119.18h-58.41c6.26-15.3,8.61-54.76,7.04-118.39-.7-23.99-3.13-39.72-7.3-47.2,9.21-.87,19.69-2.78,31.42-5.74,11.73-2.95,20.82-5.91,27.25-8.87-3.13,8.17-5.04,25.47-5.74,51.9h35.73v8.87h-35.99Z"/>
  <path class="cls-1" d="m785.71,375.18c-.7,4.35-1.22,10.65-1.57,18.91-.35,8.26-.44,16.95-.26,26.08.17,9.13.87,18.17,2.09,27.12,1.21,8.96,2.78,15.87,4.69,20.73h-59.2c4-8.69,6.47-21.65,7.43-38.86.95-17.21.65-33.25-.91-48.11-1.56-14.87-3.74-24.82-6.52-29.86,18.25-1.74,35.73-5.56,52.42-11.47v13.56c1.22-1.91,2.52-3.56,3.91-4.96,7.13-6.95,15.73-10.34,25.82-10.17,9.73.35,17.86,4.61,24.38,12.78,6.52,8.17,9.87,17.47,10.04,27.9,0,7.65-1.69,14.21-5.08,19.69-3.39,5.48-7.65,9.39-12.78,11.73-5.13,2.35-10.69,3.39-16.69,3.13-6-.26-11.52-1.86-16.56-4.82,4.52-3.3,7.6-8.82,9.25-16.56,1.65-7.73,1.65-15,0-21.78-1.65-6.78-4.48-10.52-8.47-11.21-5.74-1.22-9.74,4.17-11.99,16.17Z"/>
  <path class="cls-1" d="m976.86,420.87c-.52,4.35-1.61,8.47-3.26,12.39-1.66,3.91-3.69,7.52-6.13,10.82-2.44,3.31-5.26,6.35-8.47,9.13-3.22,2.78-6.78,5.21-10.69,7.3-3.91,2.09-8.05,3.74-12.39,4.96-17.39,4.7-33.64,2.44-48.77-6.78-8.7-5.21-15.61-12.04-20.73-20.47-5.13-8.43-8.26-17.17-9.39-26.21-1.13-9.04-.57-18.21,1.7-27.51,2.26-9.3,5.95-17.64,11.08-25.03,5.13-7.39,11.95-13.39,20.47-18,8.52-4.6,17.82-6.91,27.9-6.91,15.65,0,29.12,5.57,40.42,16.69,11.3,11.13,17.64,24.95,19.04,41.47h-86.06c4.34,8.52,10.47,15.69,18.38,21.51,7.91,5.83,17.6,9.69,29.08,11.61,11.47,1.91,24.08.26,37.81-4.96Zm-88.41-69.63c-3.3.7-5.13,4.04-5.48,10.04-.35,6,1.22,13.52,4.7,22.56h35.21c-3.31-9.56-8.61-17.64-15.91-24.25-7.3-6.61-13.47-9.39-18.52-8.35Z"/>
  <path class="cls-1" d="m1001.63,354.83c2.96-6.08,7.87-11.12,14.73-15.12,6.87-4,14.17-6.48,21.91-7.44,7.73-.95,15.3-.95,22.69,0,7.39.96,13.6,3.48,18.64,7.56,5.04,4.09,7.65,9.09,7.82,15,.17,3.83-.91,7.22-3.26,10.17-2.34,2.96-5.39,5-9.13,6.13-3.74,1.13-7.65,1.52-11.73,1.17-4.09-.35-7.96-1.74-11.61-4.17-3.65-2.43-6.43-5.82-8.34-10.17,5.04-1.39,8.13-3.52,9.26-6.39,1.13-2.87.48-5.43-1.96-7.69-2.44-2.26-5.65-3.48-9.65-3.65-4.69-.17-8.08,1.35-10.17,4.56-2.09,3.22-2.79,6.48-2.09,9.78.17.87.39,1.65.65,2.35.26.7.69,1.43,1.3,2.22.61.78,1.13,1.48,1.57,2.09.43.61,1.08,1.26,1.96,1.96.87.7,1.52,1.26,1.96,1.69.43.44,1.26,1.09,2.48,1.96,1.22.87,2.04,1.43,2.48,1.69.43.26,1.34.83,2.74,1.69,1.39.87,2.26,1.48,2.61,1.82,19.99,13.04,32.16,21.21,36.51,24.51,6.61,4.87,11.69,9.56,15.26,14.08,3.56,4.52,5.78,9.65,6.65,15.39,1.05,6.96-.04,13.17-3.26,18.64-3.22,5.48-7.96,9.87-14.21,13.17-6.26,3.3-13.13,5.78-20.6,7.43-7.48,1.65-15.3,2.57-23.47,2.74-22.43.35-38.6-2.69-48.51-9.13-9.91-6.43-14.69-14.34-14.34-23.73.17-5.56,2.39-10.17,6.65-13.82,4.26-3.65,9.99-5.56,17.21-5.74,7.21-.17,15.6,2.35,25.17,7.56-4,3.13-6.43,6.91-7.3,11.35-.87,4.43-.39,8.47,1.43,12.13,1.83,3.65,4.91,6.74,9.26,9.25,4.34,2.52,9.21,3.7,14.61,3.52,6.43-.35,10.95-3.04,13.56-8.08,1.39-2.09,1.86-4.3,1.43-6.65-.44-2.35-1.17-4.43-2.22-6.26-1.04-1.83-2.65-3.78-4.82-5.87-2.18-2.08-4.39-4-6.65-5.74-2.26-1.74-4.87-3.52-7.82-5.34-2.96-1.83-5.6-3.43-7.95-4.82-2.35-1.39-4.79-2.83-7.3-4.3-2.52-1.48-4.56-2.83-6.13-4.04-6.95-5.04-12.3-10.78-16.04-17.21-3.74-6.43-5.65-12.65-5.74-18.64-.09-6,1.17-11.87,3.78-17.6Z"/>
  <path class="cls-1" d="m1166.44,413c.87,28.51,2.78,46.85,5.74,55.02h-58.94c5.04-12.17,7.56-37.46,7.56-75.89s-2.52-62.93-7.56-73.54c9.39-1.21,19.95-3.6,31.68-7.17,11.73-3.56,20.82-7.17,27.25-10.82-1.91,5.91-3.43,17.56-4.56,34.95-1.13,17.38-1.61,36.16-1.43,56.33,3.13-12.86,6.78-23.51,10.95-31.95,4.17-8.43,9.47-14.56,15.91-18.38,3.13-1.91,6.69-3.17,10.69-3.78,4-.61,8.12-.35,12.39.78,4.26,1.13,8.12,3.13,11.6,6,3.48,2.87,6.34,7.22,8.61,13.04,2.26,5.83,3.39,12.74,3.39,20.73v22.56c0,3.39.04,8.26.13,14.6.09,6.35.3,11.78.65,16.3.35,4.52.74,9.3,1.17,14.34.43,5.04,1.08,9.43,1.96,13.17.87,3.74,1.83,6.65,2.87,8.74h-56.85c2.26-3.13,4.13-12.82,5.6-29.08,1.48-16.26,1.6-32.16.39-47.73-1.22-15.56-4.09-23.51-8.61-23.86-3.83-.17-7.22,3.05-10.17,9.65-2.96,6.61-5.74,15.56-8.34,26.86-.7,2.79-1.39,5.83-2.09,9.13Z"/>
  <g>
    <path class="cls-1" d="m225.56,109.66l3.58-.37c5.25-.6,10.78-1,15.18-1.09,10.4-.25,20.6.54,30.35,2.35,4.36.77,8.78,1.81,13.48,3.16l-.2.32.57-.21c.48.14.97.28,1.46.43l.5.15.25-.46c.21-.39.42-.77.63-1.16l.58-.21-.39-.15c4.64-8.76,7.96-18.25,9.87-28.22.1-.49.19-.98.28-1.48,5.16-28.82-2.31-58.87-20.12-80.64L279.9,0l-.44.16c-20.88,7.77-38.33,23.42-47.88,42.93-9.67,19.04-12.18,41.94-6.88,62.81l.87,3.76Zm74.58-25.72h0c-1.93,9.85-5.61,19.4-10.68,27.67-4.31-1.61-8.89-3.12-13.99-4.62-10.44-2.98-20.84-4.98-30.89-5.95-3.79-.36-7.96-.6-11.76-.69-1.98-19.71,2.57-40.63,12.68-57.9,8-13.6,19.22-24.87,32.56-32.73,18.52,19.15,27,46.63,22.37,72.76-.09.49-.18.97-.27,1.46Z"/>
    <path class="cls-1" d="m92.92,195.41c4.59,2.88,9.98,5.53,16.96,8.33l.61.24.24-.61c4.77-12.03,10.41-22.85,16.78-32.14,3.04-4.41,6.44-8.79,10.11-13.04,3.65-4.15,7.57-8.09,11.66-11.71l.63-.56-.46-.69c-4.4-6.62-9.47-12.65-15.07-17.92-21.65-20.6-51.27-30.68-79.21-26.95l-2.85.37-.07.5c-.2,1.49-.3,2.23-.32,2.61h-.03c-6.38,35.67,10.1,72.48,41.02,91.57Zm-34.28-88.69l.03-.03v.03s-.02,0-.03,0Zm65.06,61.48c-6.57,7.5-12.4,15.57-17.33,23.97-11.99-7.21-22.59-17.47-30.69-29.7-10.56-16.11-16.14-35.52-15.73-54.7,25.53-5.68,52.35,1.37,71.82,18.9.57.52,1.14,1.05,1.71,1.59,5.55,5.31,10.23,11.13,13.93,17.28-4.16,3.33-8.2,6.85-12,10.47-3.94,3.69-7.88,7.8-11.7,12.2Z"/>
    <path class="cls-1" d="m99.88,280.88l.59-.12-.07-.6c-2.96-27.79,1.46-49.59,7.69-66.01.4-1.06.82-2.12,1.25-3.16-6.38-3.09-15.73-6.75-27.51-8.59-11.21-1.76-20.79-1.26-27.63-.39l-3.51.49-3.43.68c-.89.16-2.62.56-3.48.8l-3.44.91c-1.09.36-3.98,1.31-5.07,1.67l-1.76.7c-1.16.46-2.49.98-3.21,1.28l-3.2,1.49c-1.51.66-3.56,1.81-5.2,2.73l-1.17.65c-.41.27-.89.56-1.39.88-1.59,1.01-3.4,2.15-4.58,3.04-4.58,3.07-8.65,7-12.58,10.8l-1.24,1.2.23.43c.4.76,1.01,1.89,1.63,3.03.69,1.27,1.39,2.57,1.84,3.43,15.66,28.81,46.2,46.39,78.04,46.39,5.72,0,11.48-.57,17.2-1.74Zm7.7-69.04l-.16.41c-.19.48-.37.95-.55,1.43-5.81,15.3-9.72,31.27-11.63,47.5-.55,5.12-.9,9.75-1.06,14.05-.42,0-.84.01-1.26.01-23.43,0-47.42-10.06-64.87-27.35-5.02-4.98-9.53-10.57-13.46-16.65,5.43-5.76,10.88-10.33,16.6-13.89,15.03-9.78,33.04-14.26,50.7-12.59,8.78.78,17.45,3.09,25.77,6.87-.02.06-.05.13-.08.2Z"/>
    <path class="cls-1" d="m103.28,293.94c-.08-.49-.16-.98-.23-1.48l-.02-.13c-.01-.07-.02-.17-.04-.28-.02-.13-.03-.24-.05-.34-.04-.37-.09-.73-.13-1.1-.22,0-.44,0-.66,0-18.84,1.79-36.37,8.82-50.72,20.34l-2.74,2.23-2.57,2.35c-.68.59-1.95,1.83-2.55,2.49l-2.47,2.56c-.75.88-2.73,3.18-3.48,4.06l-1.24,1.63c-.74.97-1.55,2.04-2,2.64l-1.97,2.95c-.96,1.35-2.12,3.4-3.06,5.05l-.67,1.18c-.22.45-.48.97-.75,1.51-.85,1.69-1.81,3.61-2.36,4.99-2.35,5.03-3.86,10.55-5.31,15.89l-.46,1.69.41.26c.74.47,1.84,1.16,2.96,1.87,1.2.75,2.41,1.51,3.2,2.02,13.93,8.69,29.64,12.94,45.27,12.94,20.97,0,41.78-7.66,57.9-22.57l.43-.4-.34-.47c-13.64-18.66-22.73-40.03-26.33-61.89Zm18.58,60.75c-20.05,12.53-45.93,16.24-69.78,9.9-6.75-1.81-13.37-4.4-19.74-7.72,1.88-8.48,4.79-16.41,8.69-23.64,8.11-14.96,20.66-27.06,35.34-34.07,7.84-3.81,16.34-6.22,25.29-7.16.01.07.02.14.03.21h0l.07.45c.08.5.16,1,.24,1.49,2.67,16.4,7.3,32.42,13.77,47.65,2.08,4.77,4.09,9.02,6.1,12.88Z"/>
    <path class="cls-1" d="m135.08,330.8c-.19-.36-18.79-36.4-16.79-77.11.87-17.71,7.92-78.29,62.01-113.98,51.47-33.96,107.64-19.48,118.38-16.23l.41-1.24c-21.63-7.74-55.03-14.6-91.26-3.39-63.16,19.55-101.61,85.7-102.28,138.36-.43,33.86,15.88,73.14,18.9,78.95,2.71,5.23,5.91,10.66,5.95,10.73.46.71,1.12,1.82,1.78,2.92.65,1.09,1.31,2.18,1.77,2.9l.25.39,1.85-.44.9-2.92c1-3.24,2-6.47,3.01-9.7l.09-.28-.15-.25c-1.68-2.79-3.3-5.71-4.82-8.71Z"/>
    <path class="cls-1" d="m153.84,137.97l2.6,2.85,2.94-2.08c4.28-3.09,8.9-6.15,12.69-8.4,8.93-5.32,18.22-9.64,27.6-12.84,4.17-1.46,8.53-2.73,13.3-3.86l-.02.37.39-.46c.49-.11.98-.23,1.48-.34l.51-.12v-.53c0-.44-.01-.88-.02-1.32l.41-.48-.42.06c-.26-9.91-2.02-19.8-5.25-29.43h0s0,0,0,0c-.16-.48-.32-.96-.49-1.44-9.65-27.64-30.89-50.15-57.1-60.37l-2.48-.98-.3.36c-14.38,17.01-21.91,39.21-20.65,60.9.92,21.34,9.97,42.52,24.83,58.11Zm59.23-26.81c-4.53.71-9.26,1.64-14.46,2.84-10.56,2.53-20.6,5.89-29.84,9.97-3.48,1.55-7.23,3.38-10.59,5.17-11.4-16.2-17.7-36.67-17.37-56.67.3-15.78,4.55-31.1,12.31-44.49,25.53,7.59,46.4,27.37,55.19,52.41.16.47.33.95.48,1.42h0s0,0,0,0c3.16,9.53,4.63,19.65,4.27,29.35Z"/>
    <path class="cls-1" d="m432.68,113.26c-32.6-22.93-74.82-26.49-105.08-8.84-15.51,9.32-27.24,23.41-33.01,39.68-9.97,29.35-2.08,61.31,19.63,79.53,14.78,12.76,33.78,18.88,50.81,16.37,17.17-2.33,37.13-12.67,36.9-34.12.14-9.72-7.07-17.4-17.15-18.27l-.17,1.29c7.53,1.3,12.45,5.67,13.86,12.33,1.88,8.86-2.85,19.63-11,25.06-13.49,9-31.57,10.67-47.19,4.35-23.15-9-38.07-29.13-39.91-53.87-1.91-25.69,10.77-49.57,33.08-62.33,30.32-16.99,67.94-7.62,91.76,9.2,24.09,17.32,38.4,49.57,38.27,86.28.03,34.87-12.61,67.88-34.67,90.57-27.81,28.32-63.04,41.61-87.68,47.76-46.19,10.81-99.54,3.89-150.23-19.5l-.59,1.16c27.4,15.15,57.59,25.18,87.29,28.99,9.33,1.2,18.53,1.8,27.57,1.8,22.24,0,43.54-3.62,63.59-10.83,29.02-10.67,51.37-24.18,68.32-41.3,25.11-25.15,39.02-60.17,39.17-98.6.58-40.98-15.71-77.14-43.58-96.71Z"/>
    <path class="cls-1" d="m232.96,300.51c27.2-13.78,44.74-37.01,48.11-63.71,3.6-27.18-2.67-51.33-17.19-66.25-12.03-12.01-30.02-16.55-46.95-11.85-15.73,4.37-27.39,16.1-31.21,31.4-2.88,12.95-.18,26.03,7.24,35,8.03,9.88,21.7,14.31,33.23,10.76,8.4-2.67,18.67-9.73,19.95-20.85.68-5.84-1.74-12.29-6.48-17.25l-1.01.82c3.99,5.76,5.24,11.89,3.53,17.22-3.37,9.39-14.44,14.58-23.21,14.19-10.51-.64-18.61-6.85-22.21-17.02-4.21-11.9-.93-25.89,7.99-34.05,6.14-6.02,15.01-9.45,24.4-9.45.14,0,.29,0,.43,0,9.72.11,18.87,3.84,25.1,10.24,15.62,16.5,15.53,41.84,14.08,55.48-2.31,24.33-19.32,46.93-45.49,60.43-19.43,9.52-42.34,12.87-68.12,9.96l-.24,1.28c10.47,2.78,21.11,4.16,31.51,4.16,16.71,0,32.79-3.55,46.54-10.51Z"/>
    <path class="cls-1" d="m267.05,372.05c-9.96-2.3-19.93-.71-27.35,4.34-11.8,7.98-16.43,24.33-10.55,37.2,3.34,8.13,10.85,16.1,20.2,15.51,5.25-.34,9.27-2.98,11.72-5.13l-.79-1.03c-5.97,3.98-14.87,4.68-20.3-1.71-4.88-5.61-7.32-13.43-6.36-20.38,1.47-10.22,7.82-17.24,17.42-19.23,11.15-2.32,23.22,2.96,29.33,12.86,4.5,6.86,5.89,17.31,3.73,27.95-2.37,11.07-9.95,21.23-19.79,26.52-11.08,5.99-26.31,6.77-42.89,2.2-26.96-7.25-41.57-31.79-47.88-45.75-11-25.87-8.71-52.57-4.85-70.4l-1.25-.37c-9.39,24.47-10.2,50.76-2.26,74.02,10.03,27.57,29.25,47.41,52.74,54.42,7,2.12,15.67,3.92,24.9,3.92s18.6-1.72,27.69-6.56c14.43-7.88,24.59-22.82,26.52-38.98,1.62-12.9-.88-24.81-7.04-33.54-5.75-8.1-14.12-13.88-22.95-15.84Z"/>
  </g>
</svg>